<?xml version="1.0" encoding="utf-8"?>
<!-- Generator: Adobe Illustrator 22.1.0, SVG Export Plug-In . SVG Version: 6.00 Build 0)  -->
<svg version="1.1" id="Layer_1" xmlns="http://www.w3.org/2000/svg" xmlns:xlink="http://www.w3.org/1999/xlink" x="0px" y="0px"
	 viewBox="0 0 1417.3 90.7" style="enable-background:new 0 0 1417.3 90.7;" xml:space="preserve">
<style type="text/css">
	.st0{fill:#FFFFFF;}
	.st1{fill:#777777;}
	.st2{fill:#E50A0A;}
</style>
<g id="Layer_3">
	<rect x="1133.9" y="0" class="st0" width="283.5" height="45.4"/>
	<rect x="850.4" y="0" class="st1" width="283.5" height="45.4"/>
	<rect x="850.4" y="45.4" class="st0" width="283.5" height="45.4"/>
	<rect x="566.9" y="0" class="st0" width="283.5" height="45.4"/>
	<rect x="1133.9" y="45.4" class="st2" width="283.5" height="45.4"/>
	<rect x="566.9" y="45.4" class="st2" width="283.5" height="45.4"/>
</g>
<g id="Layer_2_1_">
	<g>
		<polygon class="st1" points="425.2,0 425.2,45.4 453.5,45.4 453.5,22.7 481.9,22.7 481.9,45.4 510.2,45.4 510.2,22.7 538.6,22.7 
			538.6,45.4 566.9,45.4 566.9,0 		"/>
		<polygon class="st0" points="538.6,22.7 510.2,22.7 510.2,45.4 481.9,45.4 481.9,22.7 453.5,22.7 453.5,45.4 425.2,45.4 
			425.2,90.7 566.9,90.7 566.9,45.4 538.6,45.4 		"/>
	</g>
	<g>
		<polygon class="st2" points="396.9,68 368.5,68 368.5,45.4 340.2,45.4 340.2,68 311.8,68 311.8,45.4 283.5,45.4 283.5,90.7 
			425.2,90.7 425.2,45.4 396.9,45.4 		"/>
		<polygon class="st0" points="283.5,0 283.5,45.4 311.8,45.4 311.8,68 340.2,68 340.2,45.4 368.5,45.4 368.5,68 396.9,68 
			396.9,45.4 425.2,45.4 425.2,0 		"/>
	</g>
	<g>
		<polygon class="st1" points="141.7,0 141.7,45.4 170.1,45.4 170.1,22.7 198.4,22.7 198.4,45.4 226.8,45.4 226.8,22.7 255.1,22.7 
			255.1,45.4 283.5,45.4 283.5,0 		"/>
		<polygon class="st0" points="255.1,22.7 226.8,22.7 226.8,45.4 198.4,45.4 198.4,22.7 170.1,22.7 170.1,45.4 141.7,45.4 
			141.7,90.7 283.5,90.7 283.5,45.4 255.1,45.4 		"/>
	</g>
	<g>
		<polygon class="st2" points="113.4,68 85,68 85,45.4 56.7,45.4 56.7,68 28.3,68 28.3,45.4 0,45.4 0,90.7 141.7,90.7 141.7,45.4 
			113.4,45.4 		"/>
		<polygon class="st0" points="0,0 0,45.4 28.3,45.4 28.3,68 56.7,68 56.7,45.4 85,45.4 85,68 113.4,68 113.4,45.4 141.7,45.4 
			141.7,0 		"/>
	</g>
</g>
</svg>
