<?xml version="1.0" encoding="utf-8"?>
<!-- Generator: Adobe Illustrator 22.1.0, SVG Export Plug-In . SVG Version: 6.00 Build 0)  -->
<svg version="1.1"
	 id="svg3797" inkscape:export-filename="D:\dev\workspaces\potree\develop\resources\icons\area.png" inkscape:export-xdpi="90" inkscape:export-ydpi="90" inkscape:version="0.92.2 (5c3e80d, 2017-08-06)" sodipodi:docname="area.svg" xmlns:cc="http://creativecommons.org/ns#" xmlns:dc="http://purl.org/dc/elements/1.1/" xmlns:inkscape="http://www.inkscape.org/namespaces/inkscape" xmlns:rdf="http://www.w3.org/1999/02/22-rdf-syntax-ns#" xmlns:sodipodi="http://sodipodi.sourceforge.net/DTD/sodipodi-0.dtd" xmlns:svg="http://www.w3.org/2000/svg"
	 xmlns="http://www.w3.org/2000/svg" xmlns:xlink="http://www.w3.org/1999/xlink" x="0px" y="0px" viewBox="0 0 32 32"
	 style="enable-background:new 0 0 32 32;" xml:space="preserve">
<style type="text/css">
	.st0{fill:#FFFFFF;}
	.st1{fill:#E50A0A;}
	.st2{enable-background:new    ;}
</style>
<g id="Layer_2_2_">
	<g>
		<path class="st0" d="M1.5,12.2v1.5v4.7v1.5h0.3v-1.5h28.3v1.5h0.3v-1.5v-4.7v-1.5H1.5z"/>
	</g>
	<g id="Layer_3">
		<rect x="16" y="12.5" class="st0" width="14.2" height="2.9"/>
		<rect x="16" y="15.4" class="st1" width="14.2" height="2.8"/>
	</g>
	<g id="Layer_2_1_">
		<g>
			<polygon points="8.9,12.2 8.9,15.4 10.3,15.4 10.3,14 11.7,14 11.7,15.4 13.1,15.4 13.1,14 14.6,14 14.6,15.4 16,15.4 16,12.2 
							"/>
			<polygon class="st0" points="14.6,14 13.1,14 13.1,15.4 11.7,15.4 11.7,14 10.3,14 10.3,15.4 8.9,15.4 8.9,18.2 16,18.2 16,15.4 
				14.6,15.4 			"/>
		</g>
		<g>
			<polygon class="st1" points="7.5,16.8 6.1,16.8 6.1,15.4 4.7,15.4 4.7,16.8 3.2,16.8 3.2,15.4 1.8,15.4 1.8,18.2 8.9,18.2 
				8.9,15.4 7.5,15.4 			"/>
			<polygon class="st0" points="1.8,12.5 1.8,15.4 3.2,15.4 3.2,16.8 4.7,16.8 4.7,15.4 6.1,15.4 6.1,16.8 7.5,16.8 7.5,15.4 
				8.9,15.4 8.9,12.5 			"/>
		</g>
	</g>
</g>
<g class="st2">
	<g>
		<g>
			<path class="st0" d="M0.6,23.1c0-0.4,0-0.8,0.1-1c0.1-0.3,0.2-0.5,0.4-0.6c0.2-0.1,0.4-0.2,0.6-0.2c0.2,0,0.4,0,0.5,0.1
				s0.3,0.2,0.4,0.3s0.2,0.3,0.2,0.5s0.1,0.5,0.1,0.8c0,0.4,0,0.8-0.1,1s-0.2,0.5-0.4,0.6c-0.2,0.1-0.4,0.2-0.7,0.2
				c-0.3,0-0.6-0.1-0.8-0.4C0.7,24.2,0.6,23.7,0.6,23.1z M1,23.1c0,0.6,0.1,1,0.2,1.2c0.1,0.2,0.3,0.3,0.5,0.3s0.4-0.1,0.5-0.3
				c0.1-0.2,0.2-0.6,0.2-1.2c0-0.6-0.1-1-0.2-1.2c-0.1-0.2-0.3-0.3-0.5-0.3c-0.2,0-0.4,0.1-0.5,0.3C1.1,22.1,1,22.5,1,23.1z"/>
		</g>
		<g>
			<path class="st0" d="M16.4,24.8H16V22c-0.1,0.1-0.2,0.2-0.4,0.3c-0.2,0.1-0.3,0.2-0.5,0.2v-0.4c0.2-0.1,0.5-0.3,0.6-0.4
				s0.3-0.3,0.4-0.5h0.3V24.8z"/>
		</g>
		<g>
			<path class="st0" d="M31.2,24.4v0.4h-2.4c0-0.1,0-0.2,0.1-0.3c0.1-0.2,0.2-0.3,0.3-0.5c0.1-0.2,0.3-0.3,0.6-0.5
				c0.4-0.3,0.7-0.6,0.8-0.8s0.2-0.4,0.2-0.5c0-0.2-0.1-0.3-0.2-0.4c-0.1-0.1-0.3-0.2-0.5-0.2c-0.2,0-0.4,0.1-0.5,0.2
				s-0.2,0.3-0.2,0.5l-0.5,0c0-0.3,0.1-0.6,0.3-0.8s0.5-0.3,0.8-0.3c0.3,0,0.6,0.1,0.8,0.3c0.2,0.2,0.3,0.4,0.3,0.7
				c0,0.1,0,0.3-0.1,0.4s-0.2,0.3-0.3,0.4c-0.1,0.2-0.4,0.4-0.7,0.6c-0.3,0.2-0.4,0.4-0.5,0.5c-0.1,0.1-0.1,0.2-0.2,0.2H31.2z"/>
		</g>
	</g>
</g>
</svg>
