<?xml version="1.0" encoding="utf-8"?>
<!-- Generator: Adobe Illustrator 22.1.0, SVG Export Plug-In . SVG Version: 6.00 Build 0)  -->
<svg version="1.1"
	 id="svg3797" inkscape:export-filename="D:\dev\workspaces\potree\develop\resources\icons\profile.png" inkscape:export-xdpi="90" inkscape:export-ydpi="90" inkscape:version="0.92.2 (5c3e80d, 2017-08-06)" sodipodi:docname="annotation.svg" xmlns:cc="http://creativecommons.org/ns#" xmlns:dc="http://purl.org/dc/elements/1.1/" xmlns:inkscape="http://www.inkscape.org/namespaces/inkscape" xmlns:rdf="http://www.w3.org/1999/02/22-rdf-syntax-ns#" xmlns:sodipodi="http://sodipodi.sourceforge.net/DTD/sodipodi-0.dtd" xmlns:svg="http://www.w3.org/2000/svg"
	 xmlns="http://www.w3.org/2000/svg" xmlns:xlink="http://www.w3.org/1999/xlink" x="0px" y="0px" viewBox="0 0 32 32"
	 style="enable-background:new 0 0 32 32;" xml:space="preserve">
<style type="text/css">
	.st0{fill:#FAFAFA;}
	.st1{fill:none;stroke:#000000;stroke-width:0.8332;stroke-linecap:round;stroke-linejoin:round;}
	.st2{fill:none;stroke:#0000FF;stroke-width:0.8332;stroke-linecap:round;stroke-linejoin:round;}
	.st3{fill:none;stroke:#FF0000;stroke-width:0.8332;stroke-linecap:round;stroke-linejoin:round;}
	.st4{fill:none;stroke:#00FF10;stroke-width:0.8334;stroke-linecap:round;stroke-linejoin:round;}
	.st5{fill:#C8C8C8;stroke:#000000;stroke-width:0.4715;}
	.st6{fill:#FFFFFF;}
	.st7{fill:none;stroke:#000000;stroke-width:1.2408;}
</style>
<defs>
	
	<inkscape:path-effect  effect="spiro" id="path-effect4170" is_visible="true"></inkscape:path-effect>
</defs>
<g id="Layer_2_2_">
	<polygon class="st0" points="17.2,24.8 27,20.4 27,8.2 17.2,3.7 7.6,8.4 7.6,20.4 	"/>
	<path id="path3790_2_" inkscape:connector-curvature="0" sodipodi:nodetypes="cccccc" class="st1" d="M7.6,20.4v-12l9.6-4.7L27,8.2
		v12.2"/>
	<path id="path3790_1_" inkscape:connector-curvature="0" sodipodi:nodetypes="cccccc" class="st1" d="M27,8.2l-9.6,4.7L7.6,8.5"/>
	<path id="path3790_6_" inkscape:connector-curvature="0" sodipodi:nodetypes="cccccc" class="st2" d="M24.9,28.3L3.4,18.6"/>
	<path id="path3790_3_" inkscape:connector-curvature="0" sodipodi:nodetypes="cccccc" class="st3" d="M31.1,18.6L9.7,28.3"/>
	<path id="path3790_5_" inkscape:connector-curvature="0" sodipodi:nodetypes="cccccc" class="st4" d="M17.3,28.3V1.1"/>
	<circle id="path3807-0-7-9" class="st5" cx="17.2" cy="24.8" r="1.3"/>
</g>
<g id="layer1_3_" transform="translate(0,-1020.3622)" inkscape:groupmode="layer" inkscape:label="Ebene 1">
	<path id="path4136_1_" inkscape:connector-curvature="0" sodipodi:nodetypes="cscsc" class="st6" d="M1.1,1047c0,0,1.8-4.2,5.4-4.2
		c3.2,0,5.4,4.2,5.4,4.2s-1.1,4.4-5.4,4.4C2.4,1051.4,1.1,1047,1.1,1047z"/>
	
		<ellipse id="path4138_1_" transform="matrix(3.601472e-03 -1 1 3.601472e-03 -1040.2816 1049.5503)" cx="6.5" cy="1046.8" rx="2.7" ry="2.7"/>
	<circle id="circle4140_1_" class="st6" cx="5.8" cy="1046.2" r="1.3"/>
	<path id="path4136" inkscape:connector-curvature="0" sodipodi:nodetypes="cscsc" class="st7" d="M1.1,1047c0,0,1.8-4.2,5.4-4.2
		c3.2,0,5.4,4.2,5.4,4.2s-1.1,4.4-5.4,4.4C2.4,1051.4,1.1,1047,1.1,1047z"/>
</g>
</svg>
