<?xml version="1.0" encoding="utf-8"?>
<!-- Generator: Adobe Illustrator 22.1.0, SVG Export Plug-In . SVG Version: 6.00 Build 0)  -->
<svg version="1.1"
	 id="svg3797" inkscape:export-filename="D:\dev\workspaces\potree\develop\resources\icons\profile.png" inkscape:export-xdpi="90" inkscape:export-ydpi="90" inkscape:version="0.92.2 (5c3e80d, 2017-08-06)" sodipodi:docname="annotation.svg" xmlns:cc="http://creativecommons.org/ns#" xmlns:dc="http://purl.org/dc/elements/1.1/" xmlns:inkscape="http://www.inkscape.org/namespaces/inkscape" xmlns:rdf="http://www.w3.org/1999/02/22-rdf-syntax-ns#" xmlns:sodipodi="http://sodipodi.sourceforge.net/DTD/sodipodi-0.dtd" xmlns:svg="http://www.w3.org/2000/svg"
	 xmlns="http://www.w3.org/2000/svg" xmlns:xlink="http://www.w3.org/1999/xlink" x="0px" y="0px" viewBox="0 0 32 32"
	 style="enable-background:new 0 0 32 32;" xml:space="preserve">
<style type="text/css">
	.st0{fill:#F0F0F0;}
	.st1{fill:none;stroke:#969696;stroke-width:0.7634;stroke-linecap:round;stroke-linejoin:round;stroke-dasharray:1.8329,2.2911;}
	.st2{fill:none;stroke:#000000;stroke-width:0.7636;stroke-linecap:round;stroke-linejoin:round;}
	.st3{fill:none;stroke:#00FF10;stroke-width:0.7638;stroke-linecap:round;stroke-linejoin:round;}
	.st4{stroke:#FF0000;stroke-width:0.7636;stroke-linecap:round;stroke-linejoin:round;}
	.st5{fill:none;stroke:#0000FF;stroke-width:0.7636;stroke-linecap:round;stroke-linejoin:round;}
	.st6{fill:#C8C8C8;stroke:#000000;stroke-width:0.4321;}
	.st7{fill:#FFFFFF;}
	.st8{fill:none;stroke:#000000;stroke-width:1.2408;}
</style>
<defs>
	
	<inkscape:path-effect  effect="spiro" id="path-effect4170" is_visible="true"></inkscape:path-effect>
</defs>
<g id="Layer_3">
	<polygon class="st0" points="16.4,25.5 23.9,18.8 26.4,8.6 16.4,5.6 6.5,8.6 8.7,18.8 	"/>
	<path id="path3790_13_" inkscape:connector-curvature="0" sodipodi:nodetypes="cccccc" class="st1" d="M31.3,5.8l-14.8,8.4"/>
	<path id="path3790_12_" inkscape:connector-curvature="0" sodipodi:nodetypes="cccccc" class="st1" d="M6.5,8.6L31.3,1"/>
	<path id="path3790_10_" inkscape:connector-curvature="0" sodipodi:nodetypes="cccccc" class="st2" d="M8.7,18.8L6.5,8.6l9.9-3.1
		l9.9,3.1l-2.5,10.2"/>
	<path id="path3790_9_" inkscape:connector-curvature="0" sodipodi:nodetypes="cccccc" class="st2" d="M26.2,8.7l-9.7,5.5l-10-5.6"
		/>
	<path id="path3790_5_" inkscape:connector-curvature="0" sodipodi:nodetypes="cccccc" class="st3" d="M16.4,25.5V0.6"/>
	<path id="path3790_15_" inkscape:connector-curvature="0" sodipodi:nodetypes="cccccc" class="st4" d="M31.3,12.2L14,27.8"/>
	<path id="path3790_14_" inkscape:connector-curvature="0" sodipodi:nodetypes="cccccc" class="st5" d="M18.9,27.8L3,13.8"/>
	<circle id="path3807-0-7-9_1_" class="st6" cx="16.4" cy="25.6" r="1.2"/>
</g>
<g id="layer1_3_" transform="translate(0,-1020.3622)" inkscape:groupmode="layer" inkscape:label="Ebene 1">
	<path id="path4136_1_" inkscape:connector-curvature="0" sodipodi:nodetypes="cscsc" class="st7" d="M1.1,1047c0,0,1.8-4.2,5.4-4.2
		c3.2,0,5.4,4.2,5.4,4.2s-1.1,4.4-5.4,4.4C2.4,1051.4,1.1,1047,1.1,1047z"/>
	
		<ellipse id="path4138_1_" transform="matrix(2.993970e-03 -1 1 2.993970e-03 -1040.2921 1050.2585)" cx="6.6" cy="1046.8" rx="2.7" ry="2.7"/>
	<circle id="circle4140_1_" class="st7" cx="5.8" cy="1046.2" r="1.3"/>
	<path id="path4136" inkscape:connector-curvature="0" sodipodi:nodetypes="cscsc" class="st8" d="M1.1,1047c0,0,1.8-4.2,5.4-4.2
		c3.2,0,5.4,4.2,5.4,4.2s-1.1,4.4-5.4,4.4C2.4,1051.4,1.1,1047,1.1,1047z"/>
</g>
</svg>
